<?xml version="1.0" encoding="UTF-8"?>
<svg id="_레이어_1" data-name="레이어_1" xmlns="http://www.w3.org/2000/svg" version="1.1" viewBox="0 0 1024 1024">
  <!-- Generator: Adobe Illustrator 30.3.0, SVG Export Plug-In . SVG Version: 2.1.3 Build 182)  -->
  <defs>
    <style>
      .st0 {
        fill: #292a2d;
      }
      @media (prefers-color-scheme: dark) {
        .st0 {
          fill: #ffffff;
        }
      }
    </style>
  </defs>
  <path class="st0" d="M183.78,550.03c.28.12.57.23.88.34-.08-.29-.14-.55-.21-.82-.31.11-.52.27-.67.48Z"/>
  <path class="st0" d="M177.64,419.76c.04-.06.09-.13.12-.18.05-.11.06-.24.09-.37-.08.19-.14.37-.2.55Z"/>
  <path class="st0" d="M178.89,428.31s.03-.04.05-.05c-.02,0-.03-.01-.05-.02,0,.02,0,.05,0,.07Z"/>
  <path class="st0" d="M843.71,543.68l5-1.92c-5.76-2.54-1.34-9.3-2.91-11.86-2.21-3.62-1.93-7.84-2.91-11.37l-5.32-19.14c-1.47-5.3-3.21-10.45-3.91-16.14-1.2-9.81-14.51-22.85-19.6-35.54-6.75-16.84-15.35-35.03-31.29-45.37-8.21-5.33-14.45-9.04-20.37-17.45-4.46-6.33-13.55-13.72-20.85-16.63l-14.48-5.76-11.82-6.51c-5.23-2.88-10.36-2.23-15.98-6.29-3.13-2.27-10.79-.12-15.05-1.55-6.43-2.15-13.13-5-19.9-4.44-10.12.84-19.59.58-29.79.18-4.64-.18-10.62,3.8-16.21.85-4.63-2.44-9.67.99-13.36,1.05-6.97.12-11.99-.37-19.18,1.97-10.57,3.44-20.57-.8-26.29,3.31-2.56,1.84-7.53,2.75-9.76.89-2.77-1.71-5.89-.62-9.34,3.27-10.04,3.79-21.22,4.64-31.5,9.54-5.68,2.71-11.43,3.41-16.06,8.71.83-12.68,3.46-23.46-1.56-34.96l1.46-8.51v-9.14c-1.7-5.51,2.21-10.24,2.63-15.54.48-6-.58-9.56,1.14-15.7,1.16-4.14.69-13.36-1.02-17.3-2.8-6.45-2.43-9.84-2.33-16.26l.23-14.7c.05-3.09-5.49-8.37-3.73-10.91,1.89-2.74.66-4.01.75-6.54.15-4.47-2.18-9.15-3.35-13.67,1.67-1.08,4.52-2.67,4.05-4.2l-1.64-5.29c-.07-7.94-2.51-14.69-7.15-21.05,1.57-1.26,2.52-3.17,1.97-3.79l-2.35-2.7c-3.29-10.7-9.14-18.7-15.95-27.45-2.29-2.95-1.54-9.83-6.95-11.88.35-8.5-5.86-13.04-13.59-13.51-1.9-7.64-7.62-11.76-15.07-13.05-13.95-1.26-16.45-11.38-27.03-11.31-3.83,2.99-10.36,1.52-13.79-2.08l-8.09-.05c-6.84-2.14-13.59-3.85-19.59.85-3.06.72-6.18,1.44-9.36,1.08-7.1-4.57-14.01-.42-20.23,4.76-3.26,1.91-10.59,1.1-13.05,5.12-8.51,13.91-28.01,5.54-35.04,23.81-6.87,1.15-12.2,4.54-12.41,11.54-7.39,3.36-10.89,10.32-16.16,15.08-8.38,7.58-14.09,14.99-18.15,25.71-4.73,12.51-14.18,18.66-11.65,22.66.68,1.07,2.08,2.13,2.44,3.1.62,1.7-1.03,2.52-1.73,1.68-.63-4.24-3.03-1.56-3.15.58.21,5.45-4.82,7.53-6.15,10.48-2.55,5.64-4.75,9.38-7.8,14.3-3.19,5.16-3.59,12.54-9.89,16.18,6.7,3.54-.6,12.42-6.76,21.4-4.12,6.01-2.04,22.91-5.84,38.88-.78,3.29-2.23,4.43-1.55,8.74.62,3.94-2.33,9.49-3.16,13.58l-2.24,2.1c-.41.38,1.64,1.06,1.84.45.13-.41,2.09-1.18,2.33-.81,2.42,3.67-2.45,8.34-2.75,11.49-.93,9.95-2.66,20.01-3.13,26.24-.31,4.11-.21,9-3,12.21,4.28,5.74,4.86,10.36,2.59,16.58-1.2,3.28.08,8.63-.8,11.84,3.64,1.65,1.68,5.83,1.75,8.99.14,6.24,1.96,10.72-.46,15.84l-2.38,16.34c1.12,1.07,4.69,4.31,3.74,5.84-4.23,6.81-1.84,12.34-1.73,19.39.1,6.37-1.71,14.12,2.78,19.22-4.65,4.48-.2,13.63-.5,17.92-.43,5.9-1.66,14.48,2.25,17.53-1.11,1.29-2.52,2.67-2.67,4.24-.24,2.59,3.29,3.17,4.93,3.73,2.97,4.03-.04,10.28,2.59,20.24.9,3.42-2.27,8.35-1.91,11.41.47,3.96,1.96,6.29,1.49,10.45-.47,4.19,1.85,9.52,2.27,13.95l1.58,16.74c.38,3.97,1.91,5.06,2.32,9.9l1.43,17.18c3.57,2.49,5.62,7.06,3.52,11.18,3.7,5.01,6.97,17.98,6.84,21.14-.25,6.39,2.09,10.96,2.94,16.72.96,6.48.45,12.33,6.06,18.12,2.27,2.35-.56,7.67.1,10.02,6.6,3.99,2.38,12.19,7.35,18.94,6.85,4.41,7.31,10.79,4.94,18.5.35,3.05,3.22,7.97,1.85,12.04,1.11,2.14,5.24,5.15,5.46,7.67,3.75,1.35-.18,2.94-.92,7.9,5.71,13.71,4.48,20.81,6.73,26.05,5.12,4.82,5.63,11.9,5.16,18.28l7.39,7.79c-.04,1.24-1.38,3.92-.91,5.29.46,1.34,3.08,2.39,4.44,3.98,4.47,5.22,2.66,14.17,4.42,19.92,7.36,7.74,12.22,15.08,13.05,26.12.53,7.12,14.42,14.61,18.84,24.03,1.99,4.24,4.53,9.01,11.18,7.81l16.21-2.94c17.61-7.94,5.24-28.79.89-46.87-1.73-7.21-2.48-14.15-5.24-21.54l-12.87-34.54-7.38-28.62-6.57-17.75c-1.72-4.66-2.7-4.89-2.12-10.72.39-3.95-1.45-10.82-1.72-14.58-3.63.11-6.01-12.11-5.84-20.6-.89-3.72-4.14-10.37-4.09-14.73.06-6.25-3.27-9.32-4.37-14-.07-3.42,2.6-8.23-2.54-10.74-5.1-2.49-3.59-6.74-3.62-11.09-.04-5.83-2.41-12.37-3.08-18.09l-1.07-9.12c-.3-2.53-9.99-17.53-7.74-39.18-.94-5.83-6.3-11.83-.99-18-3.09-1.97-3.55-4.14-4.12-6.23-.87-3.23-.77-6.06,4.13-7.19-2.31-1.48-3.87-3.86-4.15-7.28l-1.23-14.87c-.74-8.96-2.08-17.58-2.49-24.29l-1.35-22.1c-.11-1.82-5.05-3.81-3.14-6.72,1.17-1.78,2.75-3.53,6.58-4.86-4.3-1.64-4.96-4.09-4.88-8.45l.98-52.8c.07-3.92-2.27-6.93-2.96-10.3,1.01-1.52,1.87-3.16,2-4.85.82-10.19,1.55-21.07-.57-31.87-1.11-5.65-2.7-10.38.25-16.09,6.33-12.22-3.08-23.71,7.86-26.54-5.25-3.23-.41-10.65.83-19.67.61-4.45.42-8.92,3.82-11.86-1.35-.09-1.82-1.33-1.66-2.45.17-1.23.83-1.62,1.59-2.41,4.39-4.56.44-8.57,4.48-18.46l1.39-3.41,9.16-20.37c3.66-8.14,7.81-14.63,7.54-23.44l5.46-6.27c.79-.91,3.03-2.29,3.68-3.4,1.04-1.76,1.33-4.02-1.09-5.04l11.44-17.46c1.06-1.61-.09-5.44,2.63-6.75,8.45-4.09,14.4-12.51,14.86-21.76,11.01-2.64,17.84-10.89,26.03-16.92,4.03-2.97,10.92-2.09,14.04-8.43,3.09-6.29,15.23.03,22-5.38l3.08-2.46c1.67-1.34,4.22-.81,4.76,1.88,9.47-.4,16.79,3.94,22.68,11.84,3.5,4.7,8.66,7.92,12.67,12.17l5.42,11.23c2.9,6.02,3.5,11.65,6.17,17.52l6.31,13.9c-.51,2.2-3.38,5.58-2.62,7.89.7,2.14,1.74,4.44,3.26,6.22-2.32,7.88,1.49,15.98,1.85,24.23l.76,17.73c.25,5.7,1.87,9.14-.31,13.85.91,2.68,2.11,6.34.84,10.14-3.37,10.13-2.92,20.09-3,30.06l-.05,5.88c-.08,9.32-.03,17.83.6,27.6.13,1.96-3.37,4.67-1.14,8.16,2.87,4.48.93,10.09-.92,14.34.1,1.24,1.63,4.15.58,5.1l-3.81,3.49c3.07,2.11,1.97,4.23,1.66,7.69l-1.01,11.19c-.48,5.34-2.87,9.52.37,14.26-1.8,1.43-2.53,3.71-1.95,5.78l2.35,8.37c1.11-.08,2.49-.25,4.6.4-.26,3.82.44,6.94,2.29,9.57.3.38.59.77.9,1.14,5.21.77,10.5,4.63,16.25,3.93,31.07-3.77,23.33-14.42,37.1-22.01,1.93-1.06,3.59-6.26,7.13-6.06,10.48.59,14.67-7.93,27.81-12.46,8.01.72,15.13-1.03,20.74-7.06,2.52-2.72,8.36-.18,11.02-1.06l25.06-8.24c5.69,2.57,11.83,3.04,17.16-.82,9.19-2.8,19.11.24,28.27-1.44,8.07-1.48,15.29-2.31,22.87,1.37,3.63.17,10.66.66,14.23.29,11.43-1.19,19.98,4.31,29.7,8.13,7.47,2.93,12.12,6.39,18.09,11.36,4.88,4.07,12.24,5.9,16.81,11.14,6.12,7.01,12.35,13.05,17.9,20.64l8.39,5.45,13.46,26.92c2.53,5.06,8.19,8.22,10.08,14.46l7.53,24.85c1.26,4.16,3.09,4.05,3.08,9.49-.02,6.04.09,14.36,1.04,20.71,1.27,8.51,2.95,15.53.22,24.22-1.77,5.63,1.21,19.51-4.26,26.35,1.25,1.54,2.3,3.38,2.88,4.76.53,1.24-3.33,2.93-3.63,4.34-2.61,12.51-13.14,41.15-20.21,47.83l-5.23,16.02c-3.58,3.8-7.41,6-8.69,11.44-1.67,7.11-6.02,12.97-12.17,17.39,1.01,5.11-1.28,8.59-6.1,10.6l-10.19,14.19c-7.02,9.77-12.77,17.27-20.11,26.73-3.32,4.28-3.05,12.24-10.77,13.66-11.5,2.12-6.72,15.9-18.31,15.34-1.24-.06-2.11,2.14-1.88,3.36-4.55.68-8.03,7.34-8.31,12.99-.21,4.11-7,4.59-9.6,5.34-10.93,3.18-15.67,13.61-23.44,19.51-4.52,3.43-10.79,2.21-14.54,9.62-1.83,3.61-11.54,4.42-14.64,7.34-4.15,3.9-6.99,6.94-12.56,8.04-5.69,1.13-9.58,5.45-14.17,8.22-2.09.73-6.57-.46-9.06,2-6.29,6.22-14.73,7.38-22.35,10.55-17.55,7.31-24.05,5.01-40.32,6.97-.48-8.32,5.4-13.33,10.2-19.01l9.09-10.76c3.08-3.65,5.42-6.37,9.29-9.46l10.04-14.41c4.53-3.36,10.35-4.4,12.15-11.09,15.36-1.89,18.81-17.26,29.35-22.42,7.26-3.55,12.04-8.39,18.51-13l8.81-6.29c4.14-2.95,8.68-5.53,9.75-9.94,1.47-6.03.89-10.09-2.59-15.55-1.83-2.87,1.89-12.94-19.01-17.8l-8.23,1.08c-4.42.58-13.87,1.66-17.09,4.66-4.33,4.04-6.96,4.89-11.58,7.44-5.9,3.27-9.75,11.73-16.65,13.84l-10.63,3.26c-5.93,4.89-11.45,8.12-19.11,10.2-1.23.53-2.68,3.19-3.31,5.28-6.88-1.61-11.14,1.67-15.72,4.76l-11.81,8-16.28,5.75-11.98,3.17c-3.46.92-8.95-.55-11.54-2.58l3.36-9.4c-.17-8.76,4.03-13.43,8.44-20.03,3.35-5.01,4.53-11.99,10.93-15.24,6.11-3.1,9.47-8.56,14.29-13.38,3.06-3.06,7.31-5.61,7.94-11.06,9.72-3.62,17.49-11.78,25.47-18.61,4.41-3.78,9.87-6.43,14.59-9.8,3.94-2.81,7.44-6.41,11.11-8.83l12.31-8.12c5.51-3.63,11.26-6.08,16.9-10.79l13.47-11.23c4.92-4.1,4.79-13.89,2.88-19.57-1.22-3.61.12-6.02.09-8.95-.02-2.22-3.86-5.36-2.6-8.66-11.82-9.73-29.88-8.46-40.99,2.75-6.46,6.51-25.25,19.62-27.53,20.2-4.44,1.15-6.15,5.3-9.54,7.65-3.12,2.16-9.45,5.61-12.98,6-5.81.63-7.91,3.23-12.43,5.27-5.62,2.54-10.48,3.58-15.56,7.82-5.41,4.52-23.74,6.72-35.95,8.43l-21.95,3.07c-6.33.89-12.3.89-16.04-3.42,2.93-9.89,9.31-16.79,14.13-24.75,4.21-6.96,8.61-11.18,14.96-16.33,8.16-6.61,14.32-19.85,25.32-23.87.76-6.21,5.12-9.04,10.51-10.95l18.55-16.43c4.39-3.89,10.49-4.58,12.62-10.83,2.04-5.98,9.05-5.49,13.11-8.73l19.53-15.52c5.21-.4,9.1-2.92,10.78-8.1,6.44.05,10.57-2.72,12.67-8.76,3.08-1.2,9-1.53,11.23-3.79,2.64-5.52,8.2-6.66,11.59-9.91,4.36-4.18,5.4-7.16,12.24-8.84,3.93-.97,9.43-6.28,12.67-9.69,2.8-2.95,2.13-12.29-.09-15.62-4.69-7.06-14.84-6.71-21.67-3.23-5.48,2.79-10.07,3.5-15.94,4.61l-14.62,7.9c-4.47,2.41-8.64,3.22-12.98,5.62l-14.69,8.13c-9.13,5.05-22.66,9.22-24.14,11.6-3.88,6.26-10.53,8.11-15.67,12.34-5.91,4.87-10.39,11.42-18.3,13.89-5.99,1.86-8.92,7.34-13.03,10.9-8.23,7.12-15.76,15.35-24.63,22.27-7.27,5.67-13.98,11.21-21.01,17.49-9.18,8.21-19.29,16.56-21.63,28.87-5.59,2.76-11.68,6.71-12.72,13.75-.89,6.03-4.63,10.69-7.09,16.08-3.49,7.68-6.46,24.81-5.55,34.67,1.37,14.85,13.48,29.42,19.46,30.39l22.42,3.66c9.25,1.51,17.58,2.08,26.19,1.49,2.48-.17,4.81.15,8.22-1.97,1.45,1.56,1.23,3.44.74,5.05-3.79,12.27-14.21,19.63-16.35,27.75-2.39,9.11-5.02,18.99-5.48,28.27l3.62,31.8,4.65,9.02c13.35,9.76,28.89,16.67,45.85,16.85,2.61.03,8.35-2.81,9.87,2.13l-11.31,17.73c-.04,3.21.84,6.01,1.97,9.23-8.11-1.59-2.66,5.57-6.28,12.77l-.1,4.6c1.89.89,4.44,2.54,4.85,4.72l2.83,15.11c.9-.19,4-.4,4.46,1,.45,1.36-.99,4-1.17,5.16l6.39,3.67c3.6,2.06,5.61,3.14,8.9,4.06l21.8,6.09c14.7,4.11,21.59,4.22,38.53.57,5.23-1.13,13.2,2.12,18.24-1.84,7.94-6.23,16.54-10.18,26.43-10.41,8.99-8.45,27.59-13.37,33.07-16.63l31.53-18.75c6.08-3.61,11.03-5.11,16.28-10.5,2.56-2.62,8.76-3.25,9.04-9.18,7.18-1.73,11.24-6.9,14.8-13.07,6.12.08,11.89-1.78,13.41-7.89,7.64-2.36,9.55-8.6,13.33-14.66,8.33-13.36,19.29-11.16,26.43-24.66l14.02-17.58c2.26-2.83,3.01-7.29,6.15-9.33,5.41-3.52,8.13-17.6,13.7-23.37,2.47-2.56,10.45-6.28,13.84-19.1l9.89-11.18c2.54-5.98,3.04-14.99,9.07-18.14,3.08-4.32,3.39-9.33,7.53-11.61l5.51-12.28c2.39-5.34,2.57-12.93,5.49-17.86,6.11-10.33,11.59-23.93,10.37-34.43.25-3.3,4.31-8.05,4.95-11.98,1.11-6.85,2.95-13.04-.15-20.47-.75-1.81.9-3.7,2.06-4.6,4.08-3.17,1.46-11.2,1.82-16.75.69-10.62,2.28-20.17-3.86-29.72Z"/>
  <path class="st0" d="M381.99,332.2c6.28.04,10.65-3.88,15.57-5.99,8.05-3.45,13.06-6.69,16.52-14.83,3.02-7.08,3.1-15.02-4.4-20.29-3.08-2.17-8.22-1-11.25.33-2.76,1.21-3.44,6.8-6.43,8.75-33.73,22.04-53.28-8.33-62.67,0-2.47,2.19-3.85,6.21-3.01,10.11,1.69,7.88,9.38,13.87,17.66,16.46l16.98,5.32,21.02.12Z"/>
  <path class="st0" d="M406.02,274.21c6.76-9.93,4.97-24.46-1.78-33.98-5.78-1.39-12.11-2.23-17.2-.19-5.71,2.29-7.81,15.82-4.65,24.4,3.41,9.25,20.65,14.13,23.63,9.77Z"/>
  <path class="st0" d="M359.67,280.99c11.3-15.02-.13-37.71-3.76-38.46-8.03-1.66-12.32,3.95-15.79,13.63-1.06,2.95-.29,9.49,1.02,12.92,2.82,7.38,11.34,11.25,18.54,11.9Z"/>
</svg>
